<svg width="48" height="48" viewBox="0 0 48 48" fill="none" xmlns="http://www.w3.org/2000/svg">
<rect width="48" height="48" rx="21" fill="url(#paint0_linear_1_5328)"/>
<path d="M19.9014 33.1358C19.199 33.1358 19.3184 32.8633 19.0762 32.1759L17.0111 25.1901L32.9078 15.4963" fill="#C8DAEA"/>
<path d="M19.9014 33.136C20.4433 33.136 20.6827 32.8813 20.9853 32.579L23.8756 29.6902L20.2703 27.4556" fill="#A9C9DD"/>
<path d="M20.2699 27.456L29.0059 34.0902C30.0029 34.6555 30.7222 34.3627 30.9706 33.1389L34.5266 15.9148C34.8906 14.4145 33.9702 13.7338 33.0164 14.1789L12.1356 22.4548C10.7103 23.0424 10.7188 23.8598 11.8759 24.2239L17.2343 25.9431L29.6398 17.8986C30.2254 17.5335 30.763 17.7296 30.3219 18.1322" fill="url(#paint1_linear_1_5328)"/>
<defs>
<linearGradient id="paint0_linear_1_5328" x1="18.024" y1="2.016" x2="6.024" y2="30" gradientUnits="userSpaceOnUse">
<stop stop-color="#37AEE2"/>
<stop offset="1" stop-color="#1E96C8"/>
</linearGradient>
<linearGradient id="paint1_linear_1_5328" x1="20.4779" y1="24.3265" x2="23.9301" y2="35.204" gradientUnits="userSpaceOnUse">
<stop stop-color="#EFF7FC"/>
<stop offset="1" stop-color="white"/>
</linearGradient>
</defs>
</svg>
