<svg width="48" height="48" viewBox="0 0 48 48" fill="none" xmlns="http://www.w3.org/2000/svg">
<rect width="48" height="48" rx="21" fill="#7360F2"/>
<path fill-rule="evenodd" clip-rule="evenodd" d="M24.4599 11.5897C30.1204 11.6147 32.6616 13.4563 33.2905 14.0356C35.3787 15.8424 36.5343 19.8509 35.7554 26.1883C35.0683 31.7877 31.1592 32.7799 29.8472 33.1128L29.8471 33.1128C29.7185 33.1455 29.6149 33.1718 29.5416 33.1955C29.187 33.3107 26.0639 34.0905 22.0033 33.7494C21.5552 34.2695 20.9605 34.95 20.5299 35.4132C20.4001 35.5528 20.2786 35.6907 20.1625 35.8225L20.1624 35.8226C19.5764 36.4877 19.1271 36.9978 18.4413 36.7852C17.7619 36.5751 17.7999 35.5451 17.7999 35.5451L17.8037 33.001H17.798C11.8606 31.3338 11.9476 25.1848 12.0148 21.9037C12.082 18.6227 12.7192 15.9762 14.5306 14.1675C17.7847 11.1878 24.4599 11.5897 24.4599 11.5897ZM29.1775 31.3382C30.2973 31.0781 33.4052 30.3562 33.9786 25.7337V25.7322C34.6367 20.4389 33.7367 16.8257 31.9701 15.3158C31.4381 14.8336 29.1437 13.3942 24.3554 13.3733C24.3554 13.3733 18.6854 13.0014 15.933 15.4902C14.4011 17.0001 13.8854 19.2451 13.8285 21.9856C13.8266 22.0762 13.8245 22.1695 13.8223 22.2652C13.758 25.0678 13.6447 30.0055 18.5013 31.3516C18.5013 31.3516 18.4815 35.2381 18.4792 35.5793C18.4777 35.8181 18.5157 35.9815 18.6539 36.0152C18.7523 36.0402 18.8996 35.9894 19.0249 35.8636C19.8277 35.0588 22.3978 31.9634 22.3978 31.9634C25.8471 32.1882 28.59 31.507 28.8851 31.4122C28.9542 31.3901 29.0537 31.367 29.1775 31.3382ZM24.5571 19.7691C24.5664 19.5928 24.717 19.4574 24.8935 19.4666C26.2728 19.5384 27.0394 20.3297 27.1097 21.7446C27.1185 21.9209 26.9824 22.0709 26.8059 22.0796C26.6293 22.0884 26.479 21.9526 26.4703 21.7763C26.416 20.6846 25.9072 20.1594 24.8602 20.1049C24.6836 20.0957 24.5479 19.9453 24.5571 19.7691ZM24.4145 17.752C24.2382 17.7391 24.0848 17.8713 24.0719 18.0474C24.059 18.2234 24.1914 18.3765 24.3678 18.3894C25.5759 18.4777 26.4961 18.8792 27.157 19.5994C27.8179 20.3204 28.1359 21.2158 28.1124 22.3032C28.1085 22.4797 28.2487 22.6258 28.4255 22.6296C28.6022 22.6334 28.7486 22.4935 28.7525 22.317C28.7795 21.0693 28.4046 20.0136 27.6292 19.1677C26.8513 18.3201 25.7776 17.8516 24.4145 17.752ZM23.8291 16.0933C25.6914 16.1063 27.2602 16.7266 28.518 17.9507C29.7803 19.1791 30.418 20.857 30.434 22.9643C30.4354 23.1408 30.2932 23.2849 30.1164 23.2863C29.9396 23.2876 29.7952 23.1456 29.7938 22.9692C29.779 21.0242 29.2037 19.5106 28.0711 18.4083C26.9339 17.3017 25.5243 16.7443 23.8246 16.7325C23.6478 16.7312 23.5055 16.5872 23.5067 16.4107C23.5079 16.2342 23.6523 16.0921 23.8291 16.0933ZM25.6325 25.7808C25.3903 26.0787 24.9403 26.0408 24.9403 26.0408C21.6513 25.2026 20.771 21.8768 20.771 21.8768C20.771 21.8768 20.7315 21.4276 21.0315 21.1857L21.6258 20.7141C21.9205 20.4874 22.1085 19.9374 21.8085 19.4002C21.5784 18.997 21.3282 18.6055 21.0589 18.2273C20.7972 17.8705 20.1877 17.14 20.1854 17.1377C19.8915 16.7916 19.4594 16.7113 19.0037 16.9482C19.0023 16.9482 19.0004 16.9488 18.9986 16.9494C18.9969 16.9499 18.9953 16.9505 18.9942 16.9505C18.5409 17.2112 18.1323 17.5424 17.7835 17.9316C17.7824 17.9339 17.7812 17.9351 17.78 17.9362C17.7789 17.9373 17.7778 17.9383 17.7767 17.9403C17.4952 18.2794 17.3341 18.6118 17.2933 18.9373C17.2848 18.9853 17.2819 19.0342 17.2846 19.0829C17.283 19.2267 17.305 19.3699 17.3495 19.5067L17.3651 19.5173C17.5071 20.0208 17.8625 20.8593 18.6349 22.2574C19.0767 23.0661 19.5863 23.836 20.1581 24.5589C20.4446 24.9213 20.7517 25.267 21.0778 25.5942C21.0818 25.5982 21.0857 25.6021 21.0896 25.606C21.0973 25.6138 21.1049 25.6215 21.1128 25.6291L21.1477 25.6644L21.1827 25.6992L21.2176 25.7341C21.5454 26.0597 21.8917 26.3663 22.2547 26.6523C22.9789 27.2232 23.7503 27.7319 24.5605 28.1728C25.9606 28.9439 26.8014 29.2988 27.3049 29.4405L27.3156 29.4561C27.4526 29.5007 27.596 29.5227 27.7401 29.5213C27.7889 29.5237 27.8378 29.5206 27.886 29.5122C28.2128 29.4735 28.5456 29.3129 28.8843 29.0304C28.8885 29.0281 28.8885 29.0258 28.893 29.0235C29.2829 28.6753 29.6148 28.2674 29.8762 27.815C29.8762 27.8139 29.8766 27.8123 29.8771 27.8106C29.8776 27.8088 29.8781 27.8069 29.8781 27.8055C30.1154 27.3506 30.0349 26.9192 29.6863 26.6254C29.6859 26.6254 29.6575 26.602 29.6094 26.5624C29.4118 26.3999 28.8823 25.9644 28.5949 25.7535C28.2164 25.4846 27.8247 25.2349 27.4211 25.0051C26.8827 24.7056 26.3328 24.8933 26.1049 25.1875L25.6325 25.7808Z" fill="white"/>
</svg>
