<svg width="68" height="67" viewBox="0 0 68 67" fill="none" xmlns="http://www.w3.org/2000/svg">
<path fill-rule="evenodd" clip-rule="evenodd" d="M13.833 41.5629C9.61698 40.9839 6.53798 37.1959 6.82398 32.9379C7.09998 28.8289 10.968 25.3559 15.27 25.3559H25.633V14.6709C25.633 12.4289 26.575 10.2629 28.218 8.7259C29.882 7.1699 32.053 6.3979 34.332 6.5479C38.049 6.7959 41.191 9.7729 41.806 13.6269C41.995 14.8109 42.996 15.6699 44.187 15.6699L45.941 15.6709C46.633 15.6709 47.295 15.3749 47.756 14.8579C48.21 14.3499 48.427 13.6739 48.351 13.0029C47.439 4.9859 40.133 -0.8061 32.102 0.0919C24.69 0.9179 19.102 7.3559 19.102 15.0669V18.8259H14.946C10.831 18.8259 6.87698 20.5769 4.09798 23.6289C1.28198 26.7219 -0.0520233 30.7279 0.341977 34.9089C0.976977 41.6609 6.27398 47.0529 13.225 48.0219C13.332 48.0369 13.44 48.0449 13.549 48.0439C14.117 48.0439 14.673 47.8379 15.111 47.4579C15.643 46.9949 15.947 46.3259 15.947 45.6219V44.1699C15.946 42.7829 15.096 41.7349 13.833 41.5629" fill="#BE2786"/>
<path fill-rule="evenodd" clip-rule="evenodd" d="M67.0625 32.0243C66.4265 25.2723 61.1285 19.8793 54.1785 18.9103C53.5075 18.8173 52.8145 19.0213 52.2925 19.4753C51.7605 19.9383 51.4565 20.6073 51.4565 21.3103V22.7613C51.4565 24.1483 52.3045 25.1963 53.5695 25.3703C57.7855 25.9483 60.8645 29.7363 60.5785 33.9943C60.3035 38.1043 56.4355 41.5763 52.1325 41.5763H41.7705V52.2623C41.7705 54.5033 40.8285 56.6703 39.1865 58.2063C37.5215 59.7623 35.3505 60.5383 33.0715 60.3843C29.3555 60.1373 26.2115 57.1593 25.5965 53.3053C25.4075 52.1213 24.4065 51.2623 23.2165 51.2623H21.4615C20.7695 51.2623 20.1075 51.5593 19.6455 52.0763C19.1925 52.5843 18.9755 53.2603 19.0525 53.9303C19.9015 61.3963 26.2825 66.9333 33.6575 66.9323C34.2005 66.9323 34.7495 66.9023 35.3005 66.8413C42.7125 66.0143 48.3015 59.5763 48.3015 51.8653V48.1073H52.4565C56.5725 48.1073 60.5265 46.3563 63.3055 43.3033C66.1215 40.2103 67.4555 36.2053 67.0625 32.0243" fill="#BE2786"/>
<path fill-rule="evenodd" clip-rule="evenodd" d="M32.0723 41.6068H35.4703C36.3343 41.6068 37.0373 40.9038 37.0373 40.0408V36.7568H40.3213C41.1843 36.7568 41.8873 36.0548 41.8873 35.1908V31.7928C41.8873 30.9288 41.1843 30.2258 40.3213 30.2258H37.0373V26.9418C37.0373 26.0778 36.3343 25.3758 35.4703 25.3758H32.0723C31.2093 25.3758 30.5063 26.0778 30.5063 26.9418V30.2258H27.2223C26.3593 30.2258 25.6563 30.9288 25.6563 31.7928V35.1908C25.6563 36.0548 26.3593 36.7568 27.2223 36.7568H30.5063V40.0408C30.5063 40.9038 31.2093 41.6068 32.0723 41.6068" fill="#BE2786"/>
</svg>
