<svg width="141" height="56" viewBox="0 0 141 56" fill="none" xmlns="http://www.w3.org/2000/svg">
<path fill-rule="evenodd" clip-rule="evenodd" d="M105.059 19.6226C104.891 22.1593 106.7 24.416 109.177 24.7609C109.919 24.8634 110.418 25.4877 110.419 26.314V27.179C110.419 27.5984 110.24 27.997 109.928 28.2728C109.67 28.4992 109.344 28.6219 109.01 28.6219C108.946 28.6225 108.882 28.6178 108.819 28.6088C104.736 28.0316 101.624 24.8193 101.251 20.7968C101.019 18.306 101.803 15.9195 103.457 14.0768C105.09 12.2586 107.413 11.2155 109.831 11.2155H112.272V8.97607C112.272 4.38228 115.555 0.546874 119.91 0.0547894C124.628 -0.480189 128.92 2.97036 129.456 7.74645C129.501 8.14619 129.373 8.54892 129.106 8.85156C128.836 9.15956 128.447 9.3359 128.04 9.3359L127.01 9.3353C126.31 9.3353 125.722 8.82355 125.611 8.11819C125.25 5.82219 123.404 4.04866 121.22 3.90092C119.881 3.81156 118.605 4.27147 117.628 5.19845C116.663 6.11411 116.109 7.40449 116.109 8.74015V15.1057H110.021C107.494 15.1057 105.221 17.1747 105.059 19.6226ZM132.88 11.2658C136.963 11.843 140.075 15.0559 140.449 19.0783C140.68 21.5692 139.896 23.9551 138.242 25.7978C136.609 27.6166 134.286 28.6597 131.868 28.6597H129.427V30.8985C129.427 35.4923 126.143 39.3277 121.789 39.8204C121.465 39.8567 121.143 39.8746 120.824 39.8746C116.491 39.8752 112.742 36.5766 112.243 32.1287C112.198 31.7296 112.325 31.3269 112.592 31.0242C112.863 30.7162 113.252 30.5393 113.658 30.5393H114.689C115.389 30.5393 115.977 31.051 116.088 31.7564C116.449 34.0524 118.296 35.8265 120.479 35.9737C121.818 36.0654 123.094 35.6031 124.072 34.6761C125.037 33.7611 125.59 32.4701 125.59 31.135V24.7689H131.678C134.206 24.7689 136.478 22.7005 136.64 20.252C136.808 17.7153 134.999 15.4586 132.522 15.1143C131.779 15.0106 131.28 14.3863 131.28 13.56V12.6955C131.28 12.2767 131.459 11.8782 131.772 11.6023C132.078 11.3319 132.485 11.2103 132.88 11.2658ZM119.892 24.7871H121.889C122.396 24.7871 122.809 24.3683 122.809 23.8541V21.8977H124.739C125.246 21.8977 125.659 21.4795 125.659 20.9648V18.9404C125.659 18.4257 125.246 18.0069 124.739 18.0069H122.809V16.0505C122.809 15.5358 122.396 15.1175 121.889 15.1175H119.892C119.385 15.1175 118.972 15.5358 118.972 16.0505V18.0069H117.043C116.536 18.0069 116.123 18.4257 116.123 18.9404V20.9648C116.123 21.4795 116.536 21.8977 117.043 21.8977H118.972V23.8541C118.972 24.3683 119.385 24.7871 119.892 24.7871ZM8.23802 4.79036H25.7884C26.1956 4.79036 26.5293 4.91904 26.7807 5.17283C27.0322 5.42841 27.1591 5.76738 27.1591 6.18024V35.9013C27.1591 36.2898 27.0222 36.615 26.7507 36.8706C26.487 37.1202 26.1632 37.2465 25.7884 37.2465H23.6341C23.2492 37.2465 22.9349 37.1143 22.6999 36.8545C22.469 36.6013 22.3521 36.2808 22.3521 35.9013V9.34543H11.6291V16.5122C11.6291 21.3962 11.2789 25.3549 10.588 28.2788C9.88949 31.2373 8.78029 33.4463 7.29332 34.8457C5.79696 36.2528 3.79535 37.0452 1.3443 37.2007C0.967712 37.2406 0.625787 37.1125 0.369637 36.8325C0.124649 36.5662 -0.000488281 36.2224 -0.000488281 35.8114V33.9449C-0.000488281 33.6012 0.105849 33.2991 0.315587 33.0471C0.528849 32.7904 0.829062 32.6402 1.20624 32.6015C3.01809 32.3465 4.43455 30.9322 5.40627 28.3979C6.40502 25.7898 6.91204 21.607 6.91204 15.9659V6.13496C6.91204 5.71496 7.04246 5.38075 7.2992 5.14185C7.54771 4.90892 7.86379 4.79036 8.23802 4.79036ZM53.7279 24.6478C53.611 27.592 52.8543 29.7998 51.4784 31.2093C50.106 32.6159 48.243 33.3284 45.9418 33.3284C43.61 33.3284 41.7323 32.6159 40.3599 31.2093C38.984 29.7992 38.2426 27.5926 38.1562 24.6496C38.1263 23.7554 38.1116 22.5341 38.1116 21.0185C38.1116 19.4737 38.1263 18.2525 38.1562 17.3863C38.2426 14.4439 38.9917 12.2295 40.3829 10.8051C41.7699 9.38361 43.6405 8.66336 45.9418 8.66336C48.2424 8.66336 50.1048 9.38361 51.4772 10.8039C52.8537 12.2295 53.611 14.4457 53.7279 17.3874C53.7878 19.1723 53.8166 20.3596 53.8166 21.0185C53.8166 21.616 53.7878 22.8034 53.7279 24.6478ZM55.0322 7.60413C52.8003 5.43502 49.7417 4.33527 45.9418 4.33527C42.1412 4.33527 39.0757 5.43502 36.8291 7.60353C34.5819 9.77383 33.381 12.998 33.26 17.1849C33.2294 18.0684 33.2148 19.3224 33.2148 21.0185C33.2148 22.7152 33.2294 23.9841 33.26 24.8962C33.381 29.1445 34.5437 32.3758 36.7151 34.5008C38.8859 36.6246 41.9902 37.7017 45.9418 37.7017C49.8933 37.7017 52.99 36.6246 55.1455 34.5002C57.3017 32.3752 58.4567 29.1439 58.5783 24.8974C58.6382 23.0816 58.6688 21.7769 58.6688 21.0185C58.6688 20.2303 58.6382 18.9406 58.5783 17.1867C58.4567 12.998 57.2641 9.77442 55.0322 7.60413ZM77.1362 20.4474C81.4996 20.4474 83.6204 18.5947 83.6204 14.7831C83.6204 12.9375 83.0864 11.5107 82.0336 10.5432C80.972 9.56794 79.3246 9.07287 77.1362 9.07287H69.5757V20.4474H77.1362ZM77.3606 4.79066C80.7981 4.79066 83.5429 5.64853 85.5175 7.34164C87.5079 9.04726 88.5173 11.5512 88.5173 14.7831C88.5173 18.0162 87.5079 20.5124 85.5175 22.2025C83.5417 23.8801 80.7969 24.7302 77.3606 24.7302H69.5757V35.9016C69.5757 36.2853 69.4482 36.6094 69.1973 36.8632C68.947 37.1176 68.628 37.2468 68.2491 37.2468H66.0054C65.6206 37.2468 65.3063 37.1146 65.0713 36.8542C64.8404 36.6016 64.7235 36.2805 64.7235 35.9016V6.18053C64.7235 5.77185 64.8404 5.43585 65.0719 5.18207C65.3075 4.92232 65.6218 4.79066 66.0054 4.79066H77.3606Z" fill="#C6158D"/>
<path fill-rule="evenodd" clip-rule="evenodd" d="M76.4553 48.4848C76.2508 48.2912 76.1492 48.0392 76.1492 47.7288C76.1492 47.6877 76.1621 47.6531 76.1874 47.6245C76.2132 47.5959 76.2485 47.5816 76.2949 47.5816H76.7379C76.7843 47.5816 76.8195 47.5959 76.8448 47.6245C76.8707 47.6531 76.8836 47.6877 76.8836 47.7288C76.8836 48.0237 77.0639 48.1708 77.4258 48.1708C77.783 48.1708 77.9611 48.0237 77.9611 47.7288C77.9611 47.6877 77.974 47.6531 77.9998 47.6245C78.0251 47.5959 78.0603 47.5816 78.1068 47.5816H78.5497C78.5961 47.5816 78.6314 47.5959 78.6572 47.6245C78.6825 47.6531 78.6954 47.6877 78.6954 47.7288C78.6954 48.0392 78.595 48.2912 78.3935 48.4848C78.1919 48.6784 77.8694 48.7755 77.4258 48.7755C76.9823 48.7755 76.6592 48.6784 76.4553 48.4848ZM75.1593 54.4583C75.1258 54.4226 75.1093 54.3761 75.1093 54.3189V49.2795C75.1093 49.2223 75.1258 49.1759 75.1593 49.1401C75.1928 49.1038 75.2368 49.0859 75.2926 49.0859H76.0041C76.0546 49.0859 76.0987 49.1038 76.1339 49.1401C76.1698 49.1759 76.1874 49.2223 76.1874 49.2795V52.8224L78.6878 49.217C78.7336 49.13 78.8076 49.0859 78.9093 49.0859H79.552C79.6072 49.0859 79.6519 49.1038 79.6854 49.1401C79.7189 49.1759 79.7353 49.2223 79.7353 49.2795V54.3267C79.7353 54.3785 79.7189 54.4226 79.6854 54.4583C79.6519 54.4947 79.6072 54.5125 79.552 54.5125H78.8482C78.7924 54.5125 78.746 54.4947 78.7107 54.4583C78.6749 54.4226 78.6572 54.3785 78.6572 54.3267V50.8612L76.1645 54.3803C76.1134 54.4691 76.0399 54.5125 75.943 54.5125H75.2926C75.2368 54.5125 75.1928 54.4947 75.1593 54.4583ZM0.123592 54.4585C0.0877544 54.4222 0.0701294 54.3781 0.0701294 54.3263V49.2797C0.0701294 49.2225 0.0865794 49.176 0.120067 49.1397C0.152967 49.104 0.197617 49.0855 0.253429 49.0855H0.872654C0.969592 49.0855 1.04597 49.1343 1.10237 49.2332L2.57817 52.0088L4.05338 49.2332C4.10978 49.1343 4.18615 49.0855 4.28309 49.0855H4.89468C4.95049 49.0855 4.99632 49.104 5.03215 49.1397C5.06799 49.176 5.08562 49.2225 5.08562 49.2797V54.3263C5.08562 54.3834 5.06799 54.4287 5.03215 54.4621C4.99632 54.4954 4.95049 54.5127 4.89468 54.5127H4.23668C4.18615 54.5127 4.14268 54.4948 4.10684 54.4585C4.071 54.4222 4.05338 54.3781 4.05338 54.3263V50.9931L2.99059 53.0394C2.93478 53.1538 2.85077 53.2098 2.73855 53.2098H2.41719C2.31027 53.2098 2.22332 53.1538 2.15752 53.0394L1.09473 50.9931V54.3263C1.09473 54.3781 1.07828 54.4222 1.04479 54.4585C1.01189 54.4948 0.967242 54.5127 0.911429 54.5127H0.253429C0.202904 54.5127 0.159429 54.4948 0.123592 54.4585ZM11.4694 54.4585C11.4336 54.4222 11.416 54.3781 11.416 54.3263V49.2797C11.416 49.2225 11.4324 49.176 11.4659 49.1397C11.4988 49.104 11.5435 49.0855 11.5993 49.0855H14.971C15.0274 49.0855 15.0732 49.104 15.109 49.1397C15.1443 49.176 15.1625 49.2225 15.1625 49.2797V49.7992C15.1625 49.8558 15.1443 49.9011 15.109 49.9344C15.0732 49.9684 15.0274 49.9851 14.971 49.9851H12.4635V51.3422H14.8029C14.8593 51.3422 14.9052 51.36 14.9404 51.3958C14.9762 51.4321 14.9945 51.4786 14.9945 51.5358V52.0237C14.9945 52.0809 14.9762 52.1262 14.9404 52.1601C14.9052 52.1929 14.8593 52.2102 14.8029 52.2102H12.4635V53.6131H15.0321C15.0885 53.6131 15.1343 53.6298 15.1701 53.6638C15.2054 53.6977 15.2236 53.7424 15.2236 53.7996V54.3263C15.2236 54.3834 15.2054 54.4287 15.1701 54.4621C15.1343 54.4954 15.0885 54.5127 15.0321 54.5127H11.5993C11.5488 54.5127 11.5053 54.4948 11.4694 54.4585ZM24.543 50.07V53.5283H22.5708C22.851 53.0785 22.9909 52.2462 22.9909 51.0321V50.07H24.543ZM20.9193 55.4037C20.9193 55.4608 20.937 55.5061 20.9728 55.5401C21.008 55.5734 21.0515 55.5901 21.1026 55.5901H21.8135C21.8693 55.5901 21.914 55.5734 21.9475 55.5401C21.9804 55.5061 21.9974 55.4608 21.9974 55.4037V54.5124H25.1012V55.4037C25.1012 55.4608 25.1188 55.5061 25.1546 55.5401C25.1905 55.5734 25.2333 55.5901 25.2845 55.5901H25.9877C26.0441 55.5901 26.0899 55.5723 26.1258 55.5359C26.161 55.5002 26.1792 55.4555 26.1792 55.4037V53.7141C26.1792 53.6629 26.1598 53.6182 26.1216 53.5825C26.0835 53.5461 26.0388 53.5283 25.9877 53.5283H25.6211V49.2794C25.6211 49.2222 25.6029 49.1757 25.5676 49.14C25.5318 49.1037 25.486 49.0858 25.4296 49.0858H22.1272C22.0761 49.0858 22.0326 49.1037 21.9974 49.14C21.961 49.1757 21.9433 49.2204 21.9433 49.2717V50.8921C21.9433 51.7601 21.8887 52.4172 21.7788 52.8616C21.6696 53.306 21.4951 53.5283 21.2554 53.5283H21.1026C21.0515 53.5283 21.008 53.5461 20.9728 53.5825C20.937 53.6182 20.9193 53.6629 20.9193 53.7141V55.4037ZM32.2075 54.4585C32.174 54.4222 32.1581 54.3757 32.1581 54.3191V49.2797C32.1581 49.2225 32.174 49.176 32.2075 49.1397C32.2404 49.104 32.285 49.0855 32.3414 49.0855H33.0523C33.1028 49.0855 33.1469 49.104 33.1822 49.1397C33.218 49.176 33.2356 49.2225 33.2356 49.2797V52.8226L35.736 49.2171C35.7818 49.1302 35.8553 49.0855 35.9575 49.0855H36.5996C36.656 49.0855 36.7001 49.104 36.7336 49.1397C36.7665 49.176 36.7835 49.2225 36.7835 49.2797V54.3263C36.7835 54.3781 36.7665 54.4222 36.7336 54.4585C36.7001 54.4948 36.656 54.5127 36.5996 54.5127H35.8964C35.8406 54.5127 35.7942 54.4948 35.7589 54.4585C35.7231 54.4222 35.7055 54.3781 35.7055 54.3263V50.8614L33.2127 54.3805C33.1622 54.4692 33.0882 54.5127 32.9912 54.5127H32.3414C32.285 54.5127 32.2404 54.4948 32.2075 54.4585ZM45.9958 54.3263C45.9958 54.3781 46.0135 54.4222 46.0493 54.4585C46.0851 54.4948 46.128 54.5127 46.1791 54.5127H46.8824C46.9388 54.5127 46.9846 54.4954 47.0204 54.4621C47.0557 54.4287 47.0739 54.3834 47.0739 54.3263V49.272C47.0739 49.2148 47.0557 49.1695 47.0204 49.1361C46.9846 49.1028 46.9388 49.0855 46.8824 49.0855H46.1791C46.128 49.0855 46.0851 49.1028 46.0493 49.1361C46.0135 49.1695 45.9958 49.2148 45.9958 49.272V51.2183C45.9958 51.4405 45.8901 51.5989 45.6786 51.6943C45.4671 51.7902 45.2338 51.8384 44.9789 51.8384C44.6223 51.8384 44.3673 51.7681 44.2145 51.6287C44.0618 51.4893 43.9848 51.2671 43.9848 50.9621V49.272C43.9848 49.2148 43.9672 49.1695 43.9319 49.1361C43.8955 49.1028 43.8497 49.0855 43.7939 49.0855H43.0906C43.0395 49.0855 42.9961 49.1028 42.9608 49.1361C42.925 49.1695 42.9068 49.2148 42.9068 49.272V51.0163C42.9021 51.6257 43.0536 52.0839 43.3621 52.3883C43.6705 52.6933 44.1405 52.8458 44.7727 52.8458C45.0171 52.8458 45.2538 52.8172 45.4835 52.76C45.7127 52.704 45.8836 52.6183 45.9958 52.5051V54.3263ZM53.4883 54.4585C53.4518 54.4222 53.4342 54.3781 53.4342 54.3263V49.2797C53.4342 49.2225 53.4513 49.176 53.4842 49.1397C53.5176 49.104 53.5617 49.0855 53.6181 49.0855H54.3213C54.3777 49.0855 54.4236 49.104 54.4588 49.1397C54.4947 49.176 54.5123 49.2225 54.5123 49.2797V51.2719H56.7448V49.2797C56.7448 49.2225 56.763 49.176 56.7988 49.1397C56.8341 49.104 56.8776 49.0855 56.9281 49.0855H57.6395C57.6954 49.0855 57.74 49.104 57.7735 49.1397C57.8064 49.176 57.8228 49.2225 57.8228 49.2797V54.3263C57.8228 54.3781 57.8064 54.4222 57.7735 54.4585C57.74 54.4948 57.6954 54.5127 57.6395 54.5127H56.9281C56.8776 54.5127 56.8341 54.4948 56.7988 54.4585C56.763 54.4222 56.7448 54.3781 56.7448 54.3263V52.2566H54.5123V54.3263C54.5123 54.3781 54.4947 54.4222 54.4588 54.4585C54.4236 54.4948 54.3777 54.5127 54.3213 54.5127H53.6181C53.567 54.5127 53.5241 54.4948 53.4883 54.4585ZM64.1533 54.3191C64.1533 54.3757 64.1698 54.4222 64.2033 54.4585C64.2368 54.4948 64.2808 54.5127 64.3372 54.5127H64.987C65.0839 54.5127 65.1574 54.4692 65.2085 54.3805L67.7012 50.8614V54.3263C67.7012 54.3781 67.7189 54.4222 67.7547 54.4585C67.79 54.4948 67.8364 54.5127 67.8922 54.5127H68.596C68.6512 54.5127 68.6959 54.4948 68.7294 54.4585C68.7629 54.4222 68.7793 54.3781 68.7793 54.3263V49.2797C68.7793 49.2225 68.7629 49.176 68.7294 49.1397C68.6959 49.104 68.6512 49.0855 68.596 49.0855H67.9533C67.8516 49.0855 67.7776 49.1302 67.7318 49.2171L65.2314 52.8226V49.2797C65.2314 49.2225 65.2138 49.176 65.1779 49.1397C65.1427 49.104 65.0986 49.0855 65.0481 49.0855H64.3372C64.2808 49.0855 64.2368 49.104 64.2033 49.1397C64.1698 49.176 64.1533 49.2225 64.1533 49.2797V54.3191ZM96.8146 55.4118C96.8146 55.4684 96.8322 55.5136 96.8686 55.5476C96.9045 55.5815 96.9473 55.5982 96.9985 55.5982H97.7017C97.7581 55.5982 97.8039 55.5815 97.8392 55.5476C97.875 55.5136 97.8926 55.4684 97.8926 55.4118V53.7139C97.8926 53.6627 97.875 53.6186 97.8392 53.5822C97.8039 53.5465 97.7581 53.528 97.7017 53.528H97.3345V49.272C97.3345 49.2148 97.3181 49.1695 97.2852 49.1362C97.2517 49.1028 97.207 49.0855 97.1512 49.0855H96.4403C96.3892 49.0855 96.3458 49.104 96.3105 49.1398C96.2747 49.1761 96.2565 49.2202 96.2565 49.272V53.528H94.024V49.272C94.024 49.2202 94.0063 49.1761 93.9705 49.1398C93.9352 49.104 93.8894 49.0855 93.833 49.0855H93.1298C93.0787 49.0855 93.0358 49.1028 92.9999 49.1362C92.9641 49.1695 92.9459 49.2148 92.9459 49.272V54.3186C92.9459 54.3758 92.9629 54.4222 92.9958 54.4586C93.0293 54.4943 93.0734 54.5128 93.1298 54.5128H96.8146V55.4118ZM103.933 54.4585C103.897 54.4222 103.879 54.3781 103.879 54.3263V49.2797C103.879 49.2225 103.896 49.176 103.929 49.1397C103.962 49.104 104.006 49.0855 104.063 49.0855H107.434C107.491 49.0855 107.537 49.104 107.572 49.1397C107.608 49.176 107.625 49.2225 107.625 49.2797V49.7992C107.625 49.8558 107.608 49.9011 107.572 49.9344C107.537 49.9684 107.491 49.9851 107.434 49.9851H104.926V51.3422H107.266C107.322 51.3422 107.368 51.36 107.404 51.3958C107.44 51.4321 107.457 51.4786 107.457 51.5358V52.0237C107.457 52.0809 107.44 52.1262 107.404 52.1601C107.368 52.1929 107.322 52.2102 107.266 52.2102H104.926V53.6131H107.496C107.551 53.6131 107.597 53.6298 107.633 53.6638C107.668 53.6977 107.687 53.7424 107.687 53.7996V54.3263C107.687 54.3834 107.668 54.4287 107.633 54.4621C107.597 54.4954 107.551 54.5127 107.496 54.5127H104.063C104.012 54.5127 103.969 54.4948 103.933 54.4585ZM113.779 54.3263C113.779 54.3781 113.797 54.4222 113.833 54.4585C113.869 54.4948 113.912 54.5127 113.963 54.5127H114.666C114.723 54.5127 114.769 54.4948 114.804 54.4585C114.84 54.4222 114.857 54.3781 114.857 54.3263V52.2566H117.09V54.3263C117.09 54.3781 117.108 54.4222 117.144 54.4585C117.179 54.4948 117.223 54.5127 117.273 54.5127H117.985C118.04 54.5127 118.085 54.4948 118.119 54.4585C118.151 54.4222 118.168 54.3781 118.168 54.3263V49.2797C118.168 49.2225 118.151 49.176 118.119 49.1397C118.085 49.104 118.04 49.0855 117.985 49.0855H117.273C117.223 49.0855 117.179 49.104 117.144 49.1397C117.108 49.176 117.09 49.2225 117.09 49.2797V51.2719H114.857V49.2797C114.857 49.2225 114.84 49.176 114.804 49.1397C114.769 49.104 114.723 49.0855 114.666 49.0855H113.963C113.907 49.0855 113.863 49.104 113.829 49.1397C113.796 49.176 113.779 49.2225 113.779 49.2797V54.3263ZM125.73 54.4585C125.694 54.4222 125.676 54.3781 125.676 54.3263V50.0548H124.261C124.21 50.0548 124.167 50.0369 124.132 50.0006C124.096 49.9642 124.078 49.9177 124.078 49.8611V49.2797C124.078 49.2225 124.095 49.176 124.127 49.1397C124.161 49.104 124.205 49.0855 124.261 49.0855H128.168C128.224 49.0855 128.27 49.104 128.306 49.1397C128.342 49.176 128.36 49.2225 128.36 49.2797V49.8611C128.36 49.9177 128.342 49.9642 128.306 50.0006C128.27 50.0369 128.224 50.0548 128.168 50.0548H126.762V54.3263C126.762 54.3781 126.745 54.4222 126.712 54.4585C126.678 54.4948 126.634 54.5127 126.578 54.5127H125.859C125.808 54.5127 125.765 54.4948 125.73 54.4585ZM137.14 51.4312C136.985 51.573 136.759 51.6439 136.463 51.6439H135.363V49.9537H136.463C136.77 49.9537 136.997 50.0288 137.148 50.1789C137.298 50.329 137.374 50.5382 137.374 50.8068C137.374 51.0809 137.295 51.2888 137.14 51.4312ZM134.269 54.3265C134.269 54.3783 134.287 54.4224 134.323 54.4587C134.358 54.4945 134.401 54.5124 134.452 54.5124H135.187C135.243 54.5124 135.288 54.4957 135.324 54.4617C135.36 54.429 135.378 54.3837 135.378 54.3265V52.5124H136.502C137.118 52.5124 137.602 52.3689 137.954 52.0817C138.306 51.7952 138.482 51.3728 138.482 50.8146C138.482 50.251 138.306 49.8221 137.954 49.5278C137.602 49.2329 137.118 49.0857 136.502 49.0857H134.452C134.396 49.0857 134.352 49.1036 134.319 49.1399C134.286 49.1757 134.269 49.2227 134.269 49.2793V54.3265Z" fill="#020303"/>
</svg>
