<svg width="30" height="31" viewBox="0 0 30 31" fill="none" xmlns="http://www.w3.org/2000/svg">
<path fill-rule="evenodd" clip-rule="evenodd" d="M8.84222 9.9166C12.2146 9.35193 15.652 10.4523 18.0693 12.8704C20.8082 15.6064 21.8366 19.6182 20.7516 23.3342C19.6666 27.0501 16.641 29.8786 12.86 30.7114C12.1117 30.8669 11.3495 30.9461 10.5852 30.9477C8.80508 30.941 7.0561 30.4801 5.50393 29.6087C5.44021 29.5861 5.37069 29.5861 5.30698 29.6087L1.83082 30.6523C1.39716 30.7903 0.922744 30.6757 0.599917 30.355C0.27709 30.0343 0.159421 29.5607 0.294616 29.1262L1.30891 25.6309C1.33157 25.5706 1.33157 25.5041 1.30891 25.4438C-0.343995 22.4386 -0.436588 18.8185 1.06052 15.7328C2.55763 12.647 5.45848 10.4789 8.84222 9.9166ZM9.77118 21.8312C9.71941 21.8312 9.67412 21.8134 9.63529 21.7779C9.59647 21.7423 9.57706 21.6986 9.57706 21.6468V21.5304V21.4236C9.61588 21.1971 9.69191 20.9917 9.80515 20.8073C9.91838 20.6229 10.051 20.453 10.2031 20.2977C10.3551 20.1424 10.5024 19.9968 10.6447 19.8609C10.7871 19.7251 10.9084 19.5908 11.0087 19.4582C11.109 19.3255 11.1624 19.1912 11.1688 19.0554C11.1818 18.913 11.1543 18.7933 11.0863 18.6962C11.0184 18.5992 10.9246 18.5248 10.8049 18.473C10.6851 18.4212 10.5574 18.3954 10.4215 18.3954C10.1626 18.3954 9.95882 18.4568 9.81 18.5798C9.66118 18.7027 9.55441 18.8839 9.48971 19.1233C9.47029 19.1945 9.43794 19.2511 9.39265 19.2932C9.34735 19.3352 9.27941 19.3562 9.18882 19.3562H8.00471C7.94 19.3562 7.885 19.332 7.83971 19.2834C7.79441 19.2349 7.77176 19.1718 7.77176 19.0942C7.77824 18.8354 7.84132 18.583 7.96103 18.3371C8.08074 18.0912 8.25544 17.8664 8.48515 17.6626C8.71485 17.4587 9.00118 17.297 9.34412 17.1773C9.68706 17.0576 10.085 16.9977 10.5379 16.9977C11.0232 16.9977 11.426 17.0559 11.7463 17.1724C12.0666 17.2889 12.319 17.4409 12.5034 17.6286C12.6878 17.8162 12.8188 18.0152 12.8965 18.2255C12.9741 18.4358 13.0097 18.6315 13.0032 18.8127C12.9903 19.0457 12.9418 19.2559 12.8576 19.4436C12.7735 19.6312 12.6684 19.8043 12.5422 19.9629C12.416 20.1214 12.2834 20.2734 12.1443 20.419C12.0051 20.5646 11.8774 20.7102 11.7609 20.8558C11.6444 21.0014 11.5571 21.1551 11.4988 21.3168C11.4859 21.3621 11.4729 21.4058 11.46 21.4479C11.4471 21.4899 11.4374 21.5336 11.4309 21.5789C11.3921 21.663 11.3516 21.7261 11.3096 21.7682C11.2675 21.8102 11.2076 21.8312 11.13 21.8312H9.77118ZM11.3012 23.1742C11.3012 23.6615 10.9061 24.0565 10.4188 24.0565C9.93151 24.0565 9.53647 23.6615 9.53647 23.1742C9.53647 22.6869 9.93151 22.2918 10.4188 22.2918C10.9061 22.2918 11.3012 22.6869 11.3012 23.1742Z" fill="#C6158D"/>
<path fill-rule="evenodd" clip-rule="evenodd" d="M9.24838 14.5107C8.16338 10.7947 9.19178 6.78293 11.9307 4.04692C14.348 1.62883 17.7854 0.528446 21.1578 1.09312C24.5415 1.65541 27.4424 3.82356 28.9395 6.9093C30.4366 9.99504 30.344 13.6151 28.6911 16.6203C28.6684 16.6806 28.6684 16.7471 28.6911 16.8074L29.7054 20.3027C29.8406 20.7372 29.7229 21.2108 29.4001 21.5315C29.0773 21.8522 28.6028 21.9668 28.1692 21.8288L24.693 20.7852C24.6293 20.7626 24.5598 20.7626 24.4961 20.7852C22.9439 21.6566 21.1949 22.1175 19.4148 22.1242C18.6505 22.1226 17.8883 22.0434 17.14 21.8879C16.0145 21.64 15.4507 20.3139 14.9373 18.9275L14.7573 18.4373C14.3982 17.4586 14.0342 16.5094 13.4854 15.9478C12.9363 15.3857 12.1008 15.3961 11.3104 15.4059C10.3823 15.4174 9.51626 15.4281 9.24838 14.5107ZM17.835 19.5478L17.858 19.5808L17.679 19.5478L17.9975 19.6075C18.4579 19.6831 18.9383 19.7232 19.4198 19.7242C20.7775 19.7191 22.1251 19.364 23.3211 18.6925L23.5013 18.5913L23.6962 18.5224L23.8918 18.4615C24.352 18.3372 24.8371 18.3372 25.2973 18.4615L25.3832 18.4865L26.804 18.9118L26.3862 17.4762L26.444 17.6498L26.3772 17.4482C26.2201 16.8998 26.2425 16.3133 26.4446 15.7757L26.5052 15.6146L26.5882 15.4637C27.8659 13.1406 27.9375 10.3423 26.7802 7.95692C25.6229 5.57149 23.3803 3.89535 20.7644 3.46065C18.1542 3.02362 15.4968 3.87432 13.6269 5.74489L13.4194 5.95975C11.6602 7.84962 10.9025 10.4502 11.3492 12.9701L11.357 13.0048L11.3949 13.0047C11.4937 13.0036 11.5583 13.0032 11.636 13.0033C13.1423 13.0044 14.2133 13.2586 15.202 14.2705C16.0089 15.0962 16.3753 15.8764 17.0403 17.6922L17.0998 17.8546C17.4308 18.7581 17.6071 19.1763 17.7971 19.4877L17.835 19.5478Z" fill="#C6158D"/>
</svg>
