<svg width="26" height="30" viewBox="0 0 26 30" fill="none" xmlns="http://www.w3.org/2000/svg">
<mask id="mask0_1_3038" style="mask-type:luminance" maskUnits="userSpaceOnUse" x="0" y="0" width="26" height="30">
<path fill-rule="evenodd" clip-rule="evenodd" d="M0 0.947754H25.73V29.9478H0V0.947754Z" fill="white"/>
</mask>
<g mask="url(#mask0_1_3038)">
<path fill-rule="evenodd" clip-rule="evenodd" d="M19.005 26.8785C17.9855 26.351 17.2682 25.6239 16.55 23.4841C15.818 21.2593 14.4398 20.219 13.12 19.2064C11.9859 18.3361 10.8083 17.4381 9.78976 15.5986C9.02908 14.2293 8.61218 12.7317 8.61218 11.4059C8.61218 7.41278 11.7705 4.27518 15.7893 4.27518C19.3794 4.27518 22.2829 6.77854 22.8618 10.1592C22.9833 10.8685 23.5632 11.4059 24.2824 11.4059H24.2883C25.1478 11.4059 25.8462 10.6502 25.7139 9.80055C24.964 4.98746 20.88 1.42309 15.7893 1.42309C10.1484 1.42309 5.74132 5.80051 5.74132 11.4059C5.74132 13.2019 6.28763 15.1847 7.27751 16.9668C8.58353 19.32 10.1197 20.5035 11.3684 21.4598C12.5312 22.344 13.364 22.9852 13.8234 24.3831C14.6839 26.9783 15.7893 28.4325 17.7414 29.4451C19.5187 30.2404 21.5804 30.0843 23.2164 29.0322C24.2873 28.3436 25.0806 27.332 25.4995 26.1722C25.8393 25.2337 25.1438 24.2398 24.146 24.2398V24.2398C23.5375 24.2398 23.006 24.6291 22.7976 25.202C22.3984 26.3016 21.3354 27.0929 20.0956 27.0929C19.6797 27.0929 19.2925 27.0069 19.005 26.8785V26.8785ZM5.68303 1.3648C5.08732 0.773044 4.10435 0.815524 3.56891 1.46359C1.26609 4.25345 -0.00633408 7.76546 -0.00040663 11.4059C-0.00040663 15.1817 1.3392 18.6443 3.57286 21.3502C4.10732 21.9973 5.0893 22.0368 5.68402 21.445V21.445C6.20662 20.9264 6.2412 20.0995 5.77491 19.5295C3.90282 17.2444 2.86848 14.3775 2.87045 11.4059C2.87045 8.32461 3.96209 5.50117 5.77886 3.29913C6.25009 2.72811 6.21946 1.89728 5.6939 1.37567L5.68303 1.3648ZM15.7893 14.9703C17.7711 14.9703 19.3784 13.3748 19.3784 11.4059C19.3784 9.43601 17.7711 7.84054 15.7893 7.84054C13.8076 7.84054 12.2012 9.43601 12.2012 11.4059C12.2012 13.3748 13.8076 14.9703 15.7893 14.9703V14.9703Z" fill="#C6158D"/>
</g>
</svg>
