<svg width="32" height="33" viewBox="0 0 32 33" fill="none" xmlns="http://www.w3.org/2000/svg">
<path fill-rule="evenodd" clip-rule="evenodd" d="M24.0413 23.1034L28.8088 27.8709C29.3295 28.3916 29.3295 29.2358 28.8088 29.7565V29.7565C28.2881 30.2772 27.4439 30.2772 26.9232 29.7565L22.1557 24.989C20.1025 26.6317 17.4987 27.6144 14.6667 27.6144C8.04266 27.6144 2.66666 22.2384 2.66666 15.6144C2.66666 8.99038 8.04266 3.61438 14.6667 3.61438C21.2907 3.61438 26.6667 8.99038 26.6667 15.6144C26.6667 18.4464 25.684 21.0502 24.0413 23.1034ZM21.3663 22.1141C22.9967 20.4338 24 18.1418 24 15.6144C24 10.4577 19.8233 6.28105 14.6667 6.28105C9.51 6.28105 5.33333 10.4577 5.33333 15.6144C5.33333 20.771 9.51 24.9477 14.6667 24.9477C17.1941 24.9477 19.4861 23.9444 21.1664 22.314L21.3663 22.1141ZM16.2372 10.516C15.3112 10.9341 14.6667 11.8657 14.6667 12.9477C14.6667 14.4205 15.8605 15.6144 17.3333 15.6144C18.4153 15.6144 19.3469 14.9698 19.7651 14.0439C19.9177 14.5404 20 15.0677 20 15.6144C20 18.5598 17.6121 20.9477 14.6667 20.9477C11.7211 20.9477 9.33333 18.5598 9.33333 15.6144C9.33333 12.6689 11.7211 10.281 14.6667 10.281C15.2133 10.281 15.7407 10.3633 16.2372 10.516Z" fill="#C6158D"/>
</svg>
