<svg width="127" height="22" viewBox="0 0 127 22" fill="none" xmlns="http://www.w3.org/2000/svg">
<path fill-rule="evenodd" clip-rule="evenodd" d="M11.4127 17.76L4.35926 21.7082L5.93459 13.7799L0 8.2918L8.02704 7.34006L11.4127 0L14.7983 7.34006L22.8253 8.2918L16.8908 13.7799L18.4661 21.7082L11.4127 17.76ZM37.4127 17.76L30.3593 21.7082L31.9346 13.7799L26 8.2918L34.027 7.34006L37.4127 0L40.7983 7.34006L48.8253 8.2918L42.8908 13.7799L44.4661 21.7082L37.4127 17.76ZM63.4127 17.76L56.3593 21.7082L57.9346 13.7799L52 8.2918L60.027 7.34006L63.4127 0L66.7983 7.34006L74.8253 8.2918L68.8908 13.7799L70.4661 21.7082L63.4127 17.76ZM82.3593 21.7082L89.4127 17.76L96.4661 21.7082L94.8908 13.7799L100.825 8.2918L92.7983 7.34006L89.4127 0L86.027 7.34006L78 8.2918L83.9346 13.7799L82.3593 21.7082ZM108.359 21.7082L115.413 17.76L122.466 21.7082L120.891 13.7799L126.825 8.2918L118.798 7.34006L115.413 0L112.027 7.34006L104 8.2918L109.935 13.7799L108.359 21.7082Z" fill="#C6158D"/>
</svg>
