<svg width="127" height="22" viewBox="0 0 127 22" fill="none" xmlns="http://www.w3.org/2000/svg">
<path fill-rule="evenodd" clip-rule="evenodd" d="M4.35926 21.7082L11.4127 17.76L18.4661 21.7082L16.8908 13.7799L22.8253 8.2918L14.7983 7.34006L11.4127 0L8.02704 7.34006L0 8.2918L5.93459 13.7799L4.35926 21.7082ZM15.6594 17.8451L11.4127 15.468L7.16594 17.8451L8.11442 13.0717L4.54132 9.7674L9.37425 9.19434L11.4127 4.77502L13.4511 9.19434L18.284 9.7674L14.7109 13.0717L15.6594 17.8451ZM30.3593 21.7082L37.4127 17.76L44.4661 21.7082L42.8908 13.7799L48.8253 8.2918L40.7983 7.34006L37.4127 0L34.027 7.34006L26 8.2918L31.9346 13.7799L30.3593 21.7082ZM41.6594 17.8451L37.4127 15.468L33.1659 17.8451L34.1144 13.0717L30.5413 9.7674L35.3742 9.19434L37.4127 4.77502L39.4511 9.19434L44.284 9.7674L40.7109 13.0717L41.6594 17.8451ZM63.4127 17.76L56.3593 21.7082L57.9346 13.7799L52 8.2918L60.027 7.34006L63.4127 0L66.7983 7.34006L74.8253 8.2918L68.8908 13.7799L70.4661 21.7082L63.4127 17.76ZM63.4127 15.468L67.6594 17.8451L66.7109 13.0717L70.284 9.7674L65.4511 9.19434L63.4127 4.77502L61.3742 9.19434L56.5413 9.7674L60.1144 13.0717L59.1659 17.8451L63.4127 15.468ZM82.3593 21.7082L89.4127 17.76L96.4661 21.7082L94.8908 13.7799L100.825 8.2918L92.7983 7.34006L89.4127 0L86.027 7.34006L78 8.2918L83.9346 13.7799L82.3593 21.7082ZM93.6594 17.8451L89.4127 15.468L85.1659 17.8451L86.1144 13.0717L82.5413 9.7674L87.3743 9.19434L89.4127 4.77502L91.4511 9.19434L96.284 9.7674L92.7109 13.0717L93.6594 17.8451ZM115.413 17.76L108.359 21.7082L109.935 13.7799L104 8.2918L112.027 7.34006L115.413 0L118.798 7.34006L126.825 8.2918L120.891 13.7799L122.466 21.7082L115.413 17.76ZM115.413 15.468L119.659 17.8451L118.711 13.0717L122.284 9.7674L117.451 9.19434L115.413 4.77502L113.374 9.19434L108.541 9.7674L112.114 13.0717L111.166 17.8451L115.413 15.468Z" fill="#C6158D"/>
</svg>
