<svg width="20" height="26" viewBox="0 0 20 26" fill="none" xmlns="http://www.w3.org/2000/svg">
<path fill-rule="evenodd" clip-rule="evenodd" d="M10 0C4.48568 0 0 4.37404 0 9.75C0 16.943 9.22635 25.4922 9.61917 25.8529C9.72656 25.9508 9.86328 26 10 26C10.1367 26 10.2734 25.9508 10.3809 25.8529C10.7736 25.4922 20 16.943 20 9.75C20 4.37404 15.5143 0 10 0ZM10 15.1667C6.93682 15.1667 4.44443 12.7366 4.44443 9.75C4.44443 6.7634 6.93688 4.33332 10 4.33332C13.0631 4.33332 15.5556 6.76345 15.5556 9.75C15.5556 12.7365 13.0632 15.1667 10 15.1667Z" fill="#C6158D"/>
</svg>
