<svg width="23" height="23" viewBox="0 0 23 23" fill="none" xmlns="http://www.w3.org/2000/svg">
<path d="M23 17.1478V21.6661C23 22.337 22.4813 22.8936 21.8123 22.9408C21.2534 22.9803 20.7975 23 20.4444 23C9.15323 23 0 13.8468 0 2.55556C0 2.20252 0.0197417 1.74656 0.059225 1.18769C0.106528 0.518624 0.66309 0 1.33382 0H5.85235C6.18033 0 6.45503 0.248426 6.48796 0.574744C6.51752 0.867701 6.54501 1.1029 6.57042 1.28036C6.82889 3.08548 7.35684 4.80363 8.11223 6.39276C8.23348 6.64783 8.15441 6.95314 7.92459 7.1173L5.16676 9.0873C6.84572 13.0092 9.99082 16.1543 13.9127 17.8333L15.8791 15.0802C16.0453 14.8477 16.3543 14.7677 16.6124 14.8902C18.2014 15.645 19.9194 16.1723 21.7243 16.4302C21.9006 16.4555 22.1343 16.4827 22.4253 16.5121C22.7516 16.545 23 16.8198 23 17.1478Z" fill="#C6158D"/>
</svg>
